<svg width="32" height="32" fill="none" xmlns="http://www.w3.org/2000/svg"><path d="M25.905 0H6.095A6.095 6.095 0 000 6.095v19.81A6.095 6.095 0 006.095 32h19.81A6.095 6.095 0 0032 25.905V6.095A6.095 6.095 0 0025.905 0z" fill="#4B61C3"/><path d="M8.452 6.095v8.122a5.78 5.78 0 013.963-1.572 6.38 6.38 0 016.379 6.376 6.375 6.375 0 01-6.379 6.376 5.652 5.652 0 01-3.963-1.651v1.436H6.095V6.838l2.357-.743zm3.914 17.135c2.13 0 3.864-1.907 3.864-4.16 0-2.327-1.734-4.184-3.864-4.184s-3.794 1.857-3.794 4.184c0 2.241 1.713 4.16 3.794 4.16z" fill="#fff"/><path d="M25.905 12.765v2.59a4.272 4.272 0 00-1.067-.125c-1.829 0-3.53.83-3.53 3.32v6.847h-2.514v-12.45h2.514v1.146c.635-.83 1.778-1.395 3.53-1.395a7.67 7.67 0 011.067.067z" fill="#fff"/></svg>