<svg width="60" height="60" fill="none" xmlns="http://www.w3.org/2000/svg"><circle cx="30" cy="30" r="30" fill="#B3E0F4"/><path d="M35.852 38.435v3.068c0 .17.013.343-.01.51.017-.112.033-.227.046-.34a1.05 1.05 0 01-.058.202c.041-.102.086-.205.128-.308a.997.997 0 01-.102.18l.201-.26a.756.756 0 01-.14.145l.259-.203a.944.944 0 01-.173.103c.102-.042.205-.087.307-.128a.889.889 0 01-.202.051c.112-.016.228-.032.34-.045-.455.039-.925.007-1.38.007H24.718c-.528 0-1.06.01-1.59 0-.036 0-.071-.004-.106-.007.112.016.227.032.34.045a1.1 1.1 0 01-.209-.051c.103.041.205.086.307.128a1.164 1.164 0 01-.22-.128l.259.202a1.37 1.37 0 01-.15-.154l.2.26a1.043 1.043 0 01-.105-.183c.042.102.087.205.128.308a.91.91 0 01-.054-.209c.016.113.032.228.045.34-.02-.234-.007-.471-.007-.706V39.54v-2.564-3.133-3.434-3.469-3.232-2.74-1.955c0-.305-.003-.607 0-.912 0-.041 0-.08.007-.122-.016.113-.032.228-.045.34a.857.857 0 01.054-.202c-.041.103-.086.206-.128.308a.886.886 0 01.106-.176l-.202.26a.925.925 0 01.15-.145l-.259.203a1.04 1.04 0 01.183-.106c-.102.041-.205.087-.307.128.067-.026.134-.045.205-.058-.113.017-.228.032-.34.045.15-.019.304-.01.455-.01h11.329c.528 0 1.053-.009 1.581 0 .048 0 .096.004.144.01a12.699 12.699 0 00-.339-.045c.054.01.106.026.16.042-.102-.042-.205-.087-.307-.128.06.025.118.058.173.096l-.26-.202c.052.042.1.086.141.138l-.202-.26c.042.054.074.109.103.17-.042-.103-.087-.205-.128-.308.026.064.045.128.058.199a12.422 12.422 0 01-.045-.34c.028.237.01.484.01.722 0 .67.588 1.316 1.28 1.284.694-.033 1.28-.565 1.28-1.284 0-.37.019-.742-.064-1.107-.205-.915-1.07-1.531-1.985-1.55-.144-.004-.29 0-.435 0H23.198c-.186 0-.368.022-.55.054a2 2 0 00-1.102.639c-.339.398-.528.847-.54 1.377-.004.083 0 .166 0 .247V41.019c0 .442-.032.901.057 1.338.08.395.33.805.634 1.069.406.35.88.548 1.42.561H34.916c.62 0 1.267.051 1.885-.051a1.884 1.884 0 001.065-.616c.352-.414.541-.89.554-1.435.003-.125 0-.247 0-.372V39.61v-1.175c0-.67-.589-1.316-1.28-1.284-.701.032-1.287.565-1.287 1.284z" fill="#fff"/><path d="M29.15 38.323a.849.849 0 01-.006.09c.016-.113.032-.228.045-.34a.982.982 0 01-.041.166c.041-.102.086-.205.128-.308a.8.8 0 01-.106.183l.201-.26a.825.825 0 01-.118.119l.26-.202a.936.936 0 01-.183.105c.102-.041.205-.086.307-.128a.974.974 0 01-.166.042c.112-.016.227-.032.339-.045a.81.81 0 01-.176 0c.112.016.227.032.34.045a.974.974 0 01-.167-.042l.307.129a.798.798 0 01-.182-.106l.259.202a.826.826 0 01-.119-.119l.202.26a.939.939 0 01-.106-.183c.042.103.087.206.128.308a.982.982 0 01-.041-.167c.016.113.032.228.045.34a.813.813 0 010-.176c-.016.112-.032.228-.045.34a.978.978 0 01.041-.167c-.041.103-.086.206-.128.308a.801.801 0 01.106-.183l-.202.26a.83.83 0 01.119-.118l-.26.202a.936.936 0 01.183-.106c-.102.042-.205.087-.307.128a.965.965 0 01.166-.041c-.112.016-.227.032-.34.044a.81.81 0 01.177 0 12.36 12.36 0 00-.34-.044c.058.01.113.022.167.041-.102-.041-.205-.086-.307-.128a.798.798 0 01.182.106l-.259-.202c.045.035.08.073.119.118l-.202-.26a.94.94 0 01.105.183c-.041-.102-.086-.205-.127-.308.019.055.032.11.041.167a12.364 12.364 0 01-.045-.34.732.732 0 01.007.087c.01.337.134.667.374.908.221.221.586.391.906.375.675-.029 1.302-.565 1.28-1.283-.016-.53-.205-1.03-.582-1.41a2.005 2.005 0 00-1.405-.583c-1.079 0-1.988.908-1.988 1.993 0 1.084.906 1.993 1.988 1.993.521 0 1.037-.215 1.404-.585.378-.378.567-.879.583-1.408.022-.671-.605-1.313-1.28-1.284-.71.032-1.258.565-1.28 1.284zM37.795 35.691c.983-.42 1.885-1.03 2.685-1.736.807-.713 1.536-1.602 1.965-2.596.132-.305.26-.61.35-.931.089-.33.137-.671.172-1.011.058-.568.022-1.152.022-1.72v-2.41-.822c0-.286-.102-.555-.275-.777-.185-.24-.387-.343-.666-.459-1.337-.558-2.675-1.12-4.013-1.678-.18-.074-.355-.158-.538-.225-.403-.148-.69 0-1.03.141l-2.35.982c-.623.26-1.247.52-1.868.783-.103.042-.205.087-.308.129a.937.937 0 00-.358.33 1.262 1.262 0 00-.275.777v2.827c0 1.156-.096 2.356.294 3.463.397 1.124 1.079 2.115 1.933 2.94a9.955 9.955 0 002.97 1.996.94.94 0 00.477.151.96.96 0 00.512-.022c.298-.084.618-.312.765-.59.157-.3.237-.659.128-.99-.096-.295-.291-.638-.589-.766a9.216 9.216 0 01-1.984-1.169l.26.203a8.23 8.23 0 01-1.463-1.448l.201.26a5.865 5.865 0 01-.758-1.28c.041.102.086.205.128.308a4.69 4.69 0 01-.32-1.136c.016.112.032.227.044.34-.076-.584-.038-1.188-.038-1.778v-1.499-1.601-.212l-.94 1.238c1.33-.558 2.665-1.113 3.997-1.671.188-.08.377-.158.563-.238h-.682l3.994 1.672.564.237c-.314-.413-.628-.824-.941-1.238v3.1c0 .658.048 1.335-.039 1.987.016-.113.032-.228.045-.34a4.651 4.651 0 01-.32 1.136l.128-.309a6.218 6.218 0 01-.759 1.281l.202-.26a8.313 8.313 0 01-1.46 1.447l.26-.202a9.187 9.187 0 01-1.981 1.168c-.275.116-.512.495-.589.767-.083.309-.045.716.128.989.176.273.439.517.765.59.112.017.227.033.34.045.24 0 .454-.057.652-.173z" fill="#fff"/></svg>