<svg width="60" height="60" fill="none" xmlns="http://www.w3.org/2000/svg"><circle cx="30" cy="30" r="30" fill="#8799F9"/><path fill-rule="evenodd" clip-rule="evenodd" d="M29.964 34.418l2.4-9.667a1.2 1.2 0 10-2.328-.586l-2.4 9.667c-.16.647.23 1.303.873 1.465a1.2 1.2 0 001.455-.88zM24.849 28.938c.224-.227.351-.534.351-.855v-2.416c.663 0 1.2-.541 1.2-1.209 0-.667-.537-1.208-1.2-1.208-1.418 0-2.4.99-2.4 2.417v1.916l-.849.854a1.214 1.214 0 000 1.71L22.8 31v1.916c0 1.427.982 2.416 2.4 2.416.663 0 1.2-.54 1.2-1.208 0-.667-.537-1.208-1.2-1.208V30.5c0-.32-.127-.628-.351-.854l-.352-.354.352-.354zM35.151 29.646a1.213 1.213 0 00-.351.854v2.417c-.663 0-1.2.54-1.2 1.208 0 .667.537 1.208 1.2 1.208 1.418 0 2.4-.989 2.4-2.416V31l.848-.854a1.214 1.214 0 000-1.709l-.848-.854v-1.916c0-1.428-.983-2.417-2.4-2.417-.663 0-1.2.541-1.2 1.208 0 .668.537 1.209 1.2 1.209v2.416c0 .32.126.628.351.855l.352.354-.352.354z" fill="#fff"/><path fill-rule="evenodd" clip-rule="evenodd" d="M29.177 16.329a6.595 6.595 0 01-.586.466c-.53.386-1.167.776-1.904 1.142-2.126 1.054-4.625 1.688-7.487 1.688-.663 0-1.2.541-1.2 1.208v8.748c0 4.719 2.695 9.552 6.781 12.786 1.481 1.173 3.107 2.054 4.877 2.583.223.067.46.067.684 0 1.77-.53 3.396-1.41 4.877-2.583C39.305 39.133 42 34.3 42 29.581v-8.748c0-.667-.537-1.208-1.2-1.208-2.862 0-5.361-.634-7.487-1.688a13.261 13.261 0 01-1.904-1.142 6.595 6.595 0 01-.586-.466 1.194 1.194 0 00-1.646 0zm3.076 3.776c2.137 1.06 4.593 1.748 7.347 1.903v7.573c0 3.918-2.322 8.082-5.864 10.886-1.155.914-2.4 1.611-3.736 2.058-1.336-.447-2.581-1.144-3.736-2.058C22.722 37.663 20.4 33.5 20.4 29.581v-7.573c2.754-.155 5.21-.843 7.347-1.903.931-.462 1.683-.928 2.253-1.343.57.415 1.322.881 2.253 1.343z" fill="#fff"/></svg>