<svg width="60" height="60" fill="none" xmlns="http://www.w3.org/2000/svg"><circle cx="30" cy="30" r="30" fill="#FDDBDC"/><path d="M44.325 30.75a7.436 7.436 0 00-1.225-.877c-1.422-.791-2.706-.608-3.875-.204v-4.114c1.029-.506 2.028-1.189 2.412-2.6.084-.31.141-.628.195-.936.051-.501.196-.99.426-1.447a.834.834 0 00.132-.442.793.793 0 00-.182-.498.904.904 0 00-.469-.298.967.967 0 00-.568.022.889.889 0 00-.44.333 5.348 5.348 0 00-.675 2.064c-.051.283-.099.552-.165.797-.078.29-.224.56-.426.794a2.221 2.221 0 01-.744.558 18.495 18.495 0 00-8.722-2.168c-3.063 0-6.072.748-8.723 2.168a2.227 2.227 0 01-.742-.559 2.029 2.029 0 01-.425-.793c-.066-.245-.114-.514-.165-.797a5.344 5.344 0 00-.675-2.064.842.842 0 00-.32-.287.925.925 0 00-.433-.102.96.96 0 00-.457.113.87.87 0 00-.333.313.787.787 0 00.016.846c.23.456.374.946.426 1.447.054.308.111.625.195.936.384 1.411 1.383 2.095 2.412 2.6v4.114c-1.17-.404-2.454-.587-3.874.204-.44.252-.852.546-1.226.878a.84.84 0 00-.21.263.783.783 0 00.158.92c.08.08.178.145.286.19a.958.958 0 00.992-.153c.283-.252.594-.477.927-.67.951-.53 1.723-.334 2.963.177.015 1.596.269 3.183.755 4.715l-.056.025c-1.244.557-2.654 1.188-3.127 2.929-.085.312-.141.63-.195.936a4.139 4.139 0 01-.425 1.448.797.797 0 00.034.922c.086.112.2.202.332.263a.957.957 0 00.847-.023.87.87 0 00.314-.28 5.369 5.369 0 00.675-2.062c.05-.285.097-.554.163-.797.254-.932.943-1.287 2.135-1.821 1.121 1.933 2.738 2.793 4.325 3.635a12.643 12.643 0 012.796 1.82l.636.588.636-.589a12.646 12.646 0 012.796-1.82c1.587-.841 3.204-1.701 4.325-3.634 1.192.534 1.882.89 2.135 1.82.066.244.113.513.163.798.08.72.31 1.42.675 2.062a.87.87 0 00.314.28.952.952 0 00.847.023.881.881 0 00.332-.263.797.797 0 00.035-.922 4.139 4.139 0 01-.426-1.448c-.054-.307-.11-.624-.194-.936-.474-1.741-1.884-2.372-3.128-2.929l-.055-.025c.486-1.532.74-3.118.754-4.715 1.24-.51 2.01-.707 2.963-.177.333.193.644.418.927.67a.914.914 0 00.3.174.964.964 0 00.692-.02.901.901 0 00.287-.191.826.826 0 00.185-.279.778.778 0 00-.029-.64.84.84 0 00-.209-.264zm-11.79 9.173A17.1 17.1 0 0030 41.471a17.247 17.247 0 00-2.535-1.547c-2.625-1.392-4.89-2.595-4.89-9.355v-5.43A16.634 16.634 0 0130 23.398a16.634 16.634 0 017.425 1.74v5.43c0 6.76-2.265 7.963-4.89 9.354z" fill="#fff"/><path d="M30 17.667c.88 0 1.733.283 2.414.8a3.498 3.498 0 011.323 2.033.832.832 0 00.308.494.955.955 0 00.578.199.965.965 0 00.386-.081.897.897 0 00.31-.226.813.813 0 00.178-.328.777.777 0 00.009-.366c-.251-1.181-.938-2.245-1.942-3.01A5.894 5.894 0 0030 16c-1.3 0-2.56.418-3.564 1.183-1.004.764-1.69 1.828-1.942 3.009a.775.775 0 00.01.366c.031.12.092.232.176.328.085.095.191.172.311.226a.955.955 0 00.963-.118.832.832 0 00.31-.494 3.498 3.498 0 011.322-2.034 4.008 4.008 0 012.414-.8z" fill="#fff"/></svg>