<svg width="60" height="60" fill="none" xmlns="http://www.w3.org/2000/svg"><circle cx="30" cy="30" r="30" fill="#CFDAFF"/><circle cx="30" cy="30" r="30" fill="#4B61C3"/><path d="M21.444 19.277h-1.508a.86.86 0 100 1.721h1.508a.86.86 0 100-1.72zM36.56 19.277H24.33a.86.86 0 100 1.721h12.235a.86.86 0 10-.006-1.72z" fill="#fff"/><path d="M46.439 32.038c-3.625-1.342-5.26-3.265-5.944-4.144V18.49a2.492 2.492 0 00-2.49-2.49H18.49A2.492 2.492 0 0016 18.49v19.517a2.493 2.493 0 002.49 2.49h13.633c.427 3.863 6.42 6.194 7.127 6.45a.875.875 0 00.598 0c.733-.268 7.152-2.764 7.152-6.89v-7.213a.864.864 0 00-.561-.806zM17.72 18.49c0-.421.342-.763.763-.763h19.515c.421 0 .763.342.763.763v4.058h-21.04V18.49zm14.377 14.354v5.926H18.49a.763.763 0 01-.763-.763v-4.09h1.49a.86.86 0 100-1.72H17.72v-1.349h3.796a.86.86 0 100-1.72H17.72v-4.853h21.047v3.4c-.018.024-.03.036-.049.06-.604.788-2.209 2.875-6.065 4.303a.859.859 0 00-.556.806zm13.181 7.213c0 2.356-3.887 4.419-5.73 5.163-1.843-.744-5.73-2.795-5.73-5.163v-6.621c3.118-1.27 4.833-2.924 5.73-3.98.897 1.056 2.606 2.71 5.73 3.98v6.621z" fill="#fff"/></svg>