<svg width="60" height="60" fill="none" xmlns="http://www.w3.org/2000/svg"><circle cx="30" cy="30" r="30" fill="#CFDAFF"/><circle cx="30" cy="30" r="30" fill="#8799F9"/><path d="M32.09 20H19.86a.86.86 0 100 1.721h12.236A.86.86 0 1032.09 20zM32.09 24H19.86a.86.86 0 100 1.721h12.236A.86.86 0 1032.09 24zM32.09 28H19.86a.86.86 0 100 1.721h12.236A.86.86 0 1032.09 28z" fill="#fff"/><path fill-rule="evenodd" clip-rule="evenodd" d="M46.439 32.038c-3.625-1.342-5.26-3.265-5.944-4.144V18.49a2.492 2.492 0 00-2.49-2.49H18.49A2.492 2.492 0 0016 18.49v19.517a2.492 2.492 0 002.49 2.49h13.632c.428 3.863 6.42 6.194 7.128 6.45a.875.875 0 00.598 0C40.58 46.68 47 44.183 47 40.057v-7.213a.864.864 0 00-.561-.806zm-1.16 8.02c0 2.355-3.887 4.418-5.73 5.162-1.843-.744-5.73-2.795-5.73-5.163v-6.621c3.118-1.27 4.833-2.924 5.73-3.98.897 1.056 2.606 2.71 5.73 3.98v6.621zm-26.795-22.33a.763.763 0 00-.763.762v13.707l.006 1.72v4.09c0 .42.342.763.763.763h13.608v-5.926c0-.36.22-.678.555-.806 3.857-1.428 5.462-3.515 6.066-4.302l.024-.03.025-.031v-3.4l-.006-1.727V18.49a.763.763 0 00-.763-.763H18.484z" fill="#fff"/></svg>